<?xml version="1.0" encoding="utf-8"?>
<!-- Generator: Adobe Illustrator 19.0.0, SVG Export Plug-In . SVG Version: 6.00 Build 0)  -->
<svg version="1.1"
	 id="svg2" xmlns:dc="http://purl.org/dc/elements/1.1/" xmlns:cc="http://creativecommons.org/ns#" xmlns:rdf="http://www.w3.org/1999/02/22-rdf-syntax-ns#" xmlns:svg="http://www.w3.org/2000/svg" xmlns:sodipodi="http://sodipodi.sourceforge.net/DTD/sodipodi-0.dtd" xmlns:inkscape="http://www.inkscape.org/namespaces/inkscape" sodipodi:docname="hygeia.svg" inkscape:version="0.48.5 r10040" sodipodi:version="0.32"
	 xmlns="http://www.w3.org/2000/svg" xmlns:xlink="http://www.w3.org/1999/xlink" x="0px" y="0px" viewBox="-99 222.9 396 396"
	 style="enable-background:new -99 222.9 396 396;" xml:space="preserve">
<style type="text/css">
	.st0{fill:url(#path1938_1_);}
	.st1{fill:url(#path1948_1_);}
</style>
<sodipodi:namedview  inkscape:cy="234.75119" inkscape:cx="188.1454" inkscape:zoom="0.94192902" showgrid="true" guidetolerance="10" gridtolerance="10" objecttolerance="10" bordercolor="#666666" pagecolor="#ffffff" borderopacity="1" id="namedview27" inkscape:current-layer="svg2" inkscape:window-maximized="0" inkscape:window-y="25" inkscape:window-x="0" inkscape:window-height="676" inkscape:pageshadow="2" inkscape:pageopacity="0" inkscape:window-width="1095">
	<inkscape:grid  type="xygrid" enabled="true" visible="true" empspacing="5" id="grid3776" snapvisiblegridlinesonly="true">
		</inkscape:grid>
</sodipodi:namedview>
<g>
	
		<linearGradient id="path1938_1_" gradientUnits="userSpaceOnUse" x1="10863.4258" y1="-14658.4336" x2="6586.8862" y2="-15097.874" gradientTransform="matrix(3.543307e-002 0 0 -3.543307e-002 -203.7244 -126.0036)">
		<stop  offset="0" style="stop-color:#00A15E"/>
		<stop  offset="1" style="stop-color:#007259"/>
	</linearGradient>
	<path id="path1938_3_" inkscape:connector-curvature="0" sodipodi:nodetypes="ccccc" class="st0" d="M91.6,482
		c-2.1,1-4.5,2.2-5.4,4.3c-3.1-1.5-6.5-3.5-7.7-5.3c0.7-4.1,7.7-8.5,13.1-10.2L91.6,482z M75.6,508.7c-5.1,37.6,58.7,23.2,69.3,48.5
		c-5.1,2-9.2-4.4-14-5.4c-15.7-3.2-32.7-0.1-46.1-6c-12.4-5.5-27.4-24.3-18.1-43C69.2,505.7,71,506.7,75.6,508.7z M106.1,277.4
		c-3.2-14.1-15.7-24.3-34.7-20.7C56,259.6,46.8,280.3,52,297.4c15.3,50.6,115.4,20.7,123.6,78.1c3.3,23-6.4,41.6-16.7,53.5
		c-11.4,13.2-28.8,16-48.2,19.7l-0.4-12.4c8.4-2.2,10.4-3.3,17.1-8c12.9-8.9,28.3-33.4,20.1-54.7c-3.8-9.9-17.9-15.1-28.1-18.7
		c-11.5-4.1-24.2-5.6-36.7-10c-24.1-8.5-50.6-27.3-48.1-62.1c1.6-23.4,23.9-41.6,51.4-38.8c13.3,1.4,23.2,8.5,28.1,18.7
		c1.7,3.6,1.5,8.5,4,12.7c2.4,4.1,7.1,2.9,9.4,8.7c2.3,5.7-3,31.9-9.4,33.4c-8.3,2.1-21.4-19.9-20.7-28.1
		C98,282.4,103,282.4,106.1,277.4z M91.4,438.1l0.1,13.1c-19,3.7-23.6,22.3-15.4,31.3c10.9,11.8,34.7,16.2,46.8,9.4
		c11.3-6.4,5.8-22-12.2-15.1c0.1-2.6,0-6.6-0.2-10.4c19.6-8,42.1,0.8,33.9,27.7c-5.2,17.2-28,22.3-50.5,18
		c-12.2-2.3-26.3-10.1-32.5-18.2C43.6,470.7,65.8,439.5,91.4,438.1z"/>
	<linearGradient id="path1948_1_" gradientUnits="userSpaceOnUse" x1="-54.2088" y1="479.6237" x2="258.4526" y2="479.6237">
		<stop  offset="0" style="stop-color:#00A15E"/>
		<stop  offset="8.204456e-003" style="stop-color:#00A05E"/>
		<stop  offset="0.1807" style="stop-color:#008B5C"/>
		<stop  offset="0.375" style="stop-color:#007D5A"/>
		<stop  offset="0.6095" style="stop-color:#007559"/>
		<stop  offset="0.9898" style="stop-color:#007259"/>
	</linearGradient>
	<path id="path1948_3_" inkscape:connector-curvature="0" sodipodi:nodetypes="csssccssscc" class="st1" d="M108.3,552.8
		c-0.1,8.8-0.2,12,0.5,17.1c1.5,10.1,17.7,6.7,28.7,10c2.8,0.9,5.4,3.6,8.7,4.7c12.4,4.1,34.8,2.4,34.9,10.2
		c-0.1,7-158.4,6.8-158.5,0.1c-0.1-6,21.9-5.4,34.1-9c3.7-1.1,6.9-4.1,10.7-5.4c8.5-2.9,20.4-1.8,24.7-7.3c1.5-1.9,2.1-4.8,2-21.7
		C99.2,552.5,102.4,552.8,108.3,552.8z M172.7,359.7c27.9,0,85.8-0.4,85.7,8.5c0,0.7-0.9,1.4-1,1.6c-7,8.1-21.1,8.6-33.1,11.8
		c-20.8,5.5-37.3,17.3-50.7,29.9C179.6,399.3,185,374.1,172.7,359.7z M125.4,359.9c37,12,16.2,62.8-9.3,71c-3.2,1-5.4,2.1-7.9,2.1
		c-0.1,19.5,0,41.1,0.2,58.8c-4.4,0.7-10-0.5-14.2-2.1l-0.2-56C63.1,432,43.4,423.2,24.6,409c-14.4-10.9-26.7-21-46.1-26
		c-10.8-2.9-28-3.7-32.4-13.2c-0.2-0.5-0.4-0.6-0.4-1.4c0.1-9,139.2-8.8,155-9.1C111.7,359,115.7,359.5,125.4,359.9z M94,514.9
		c6.3,1.1,8.5,1.3,14.2,1.4c0,7.5,0,11.3,0,18.9c-6.1-0.9-9.7-1.6-14.1-4.1L94,514.9z"/>
	<g id="_300238544_1_">
	</g>
</g>
</svg>
