<?xml version="1.0" encoding="UTF-8" standalone="no"?>
<!-- Generator: Adobe Illustrator 19.0.0, SVG Export Plug-In . SVG Version: 6.00 Build 0)  -->

<svg
   xmlns:dc="http://purl.org/dc/elements/1.1/"
   xmlns:cc="http://creativecommons.org/ns#"
   xmlns:rdf="http://www.w3.org/1999/02/22-rdf-syntax-ns#"
   xmlns:svg="http://www.w3.org/2000/svg"
   xmlns="http://www.w3.org/2000/svg"
   xmlns:sodipodi="http://sodipodi.sourceforge.net/DTD/sodipodi-0.dtd"
   xmlns:inkscape="http://www.inkscape.org/namespaces/inkscape"
   version="1.1"
   id="svg2"
   sodipodi:docname="alizams2.svg"
   inkscape:version="0.92.4 (5da689c313, 2019-01-14)"
   sodipodi:version="0.32"
   x="0px"
   y="0px"
   viewBox="-99 222.9 192 192"
   xml:space="preserve"
   width="192"
   height="192"><metadata
   id="metadata32"><rdf:RDF><cc:Work
       rdf:about=""><dc:format>image/svg+xml</dc:format><dc:type
         rdf:resource="http://purl.org/dc/dcmitype/StillImage" /><dc:title></dc:title></cc:Work></rdf:RDF></metadata><defs
   id="defs30" />
<style
   type="text/css"
   id="style2">
	.st0{fill:url(#path1938_1_);}
	.st1{fill:url(#path1948_1_);}
</style>
<sodipodi:namedview
   inkscape:cy="234.75119"
   inkscape:cx="-34.801335"
   inkscape:zoom="0.94192902"
   showgrid="true"
   guidetolerance="10"
   gridtolerance="10"
   objecttolerance="10"
   bordercolor="#666666"
   pagecolor="#ffffff"
   borderopacity="1"
   id="namedview27"
   inkscape:current-layer="svg2"
   inkscape:window-maximized="0"
   inkscape:window-y="198"
   inkscape:window-x="414"
   inkscape:window-height="676"
   inkscape:pageshadow="2"
   inkscape:pageopacity="0"
   inkscape:window-width="1095">
	<inkscape:grid
   type="xygrid"
   enabled="true"
   visible="true"
   empspacing="5"
   id="grid3776"
   snapvisiblegridlinesonly="true">
		</inkscape:grid>
</sodipodi:namedview>
<g
   id="g27"
   transform="matrix(0.4782969,0,0,0.4782969,-50.751725,117.79744)">
	
		<linearGradient
   id="path1938_1_"
   gradientUnits="userSpaceOnUse"
   x1="10863.426"
   y1="-14658.434"
   x2="6586.8862"
   y2="-15097.874"
   gradientTransform="matrix(0.03543307,0,0,-0.03543307,-203.7244,-126.0036)">
		<stop
   offset="0"
   style="stop-color:#00A15E"
   id="stop6" />
		<stop
   offset="1"
   style="stop-color:#007259"
   id="stop8" />
	</linearGradient>
	<path
   id="path1938_3_"
   inkscape:connector-curvature="0"
   sodipodi:nodetypes="ccccc"
   class="st0"
   d="m 91.6,482 c -2.1,1 -4.5,2.2 -5.4,4.3 -3.1,-1.5 -6.5,-3.5 -7.7,-5.3 0.7,-4.1 7.7,-8.5 13.1,-10.2 z m -16,26.7 c -5.1,37.6 58.7,23.2 69.3,48.5 -5.1,2 -9.2,-4.4 -14,-5.4 -15.7,-3.2 -32.7,-0.1 -46.1,-6 -12.4,-5.5 -27.4,-24.3 -18.1,-43 2.5,2.9 4.3,3.9 8.9,5.9 z M 106.1,277.4 C 102.9,263.3 90.4,253.1 71.4,256.7 56,259.6 46.8,280.3 52,297.4 c 15.3,50.6 115.4,20.7 123.6,78.1 3.3,23 -6.4,41.6 -16.7,53.5 -11.4,13.2 -28.8,16 -48.2,19.7 l -0.4,-12.4 c 8.4,-2.2 10.4,-3.3 17.1,-8 12.9,-8.9 28.3,-33.4 20.1,-54.7 -3.8,-9.9 -17.9,-15.1 -28.1,-18.7 -11.5,-4.1 -24.2,-5.6 -36.7,-10 C 58.6,336.4 32.1,317.6 34.6,282.8 36.2,259.4 58.5,241.2 86,244 c 13.3,1.4 23.2,8.5 28.1,18.7 1.7,3.6 1.5,8.5 4,12.7 2.4,4.1 7.1,2.9 9.4,8.7 2.3,5.7 -3,31.9 -9.4,33.4 -8.3,2.1 -21.4,-19.9 -20.7,-28.1 0.6,-7 5.6,-7 8.7,-12 z m -14.7,160.7 0.1,13.1 c -19,3.7 -23.6,22.3 -15.4,31.3 10.9,11.8 34.7,16.2 46.8,9.4 11.3,-6.4 5.8,-22 -12.2,-15.1 0.1,-2.6 0,-6.6 -0.2,-10.4 19.6,-8 42.1,0.8 33.9,27.7 -5.2,17.2 -28,22.3 -50.5,18 -12.2,-2.3 -26.3,-10.1 -32.5,-18.2 -17.8,-23.2 4.4,-54.4 30,-55.8 z"
   style="fill:url(#path1938_1_)" />
	<linearGradient
   id="path1948_1_"
   gradientUnits="userSpaceOnUse"
   x1="-54.208801"
   y1="479.62369"
   x2="258.45261"
   y2="479.62369">
		<stop
   offset="0"
   style="stop-color:#00A15E"
   id="stop12" />
		<stop
   offset="8.204456e-003"
   style="stop-color:#00A05E"
   id="stop14" />
		<stop
   offset="0.1807"
   style="stop-color:#008B5C"
   id="stop16" />
		<stop
   offset="0.375"
   style="stop-color:#007D5A"
   id="stop18" />
		<stop
   offset="0.6095"
   style="stop-color:#007559"
   id="stop20" />
		<stop
   offset="0.9898"
   style="stop-color:#007259"
   id="stop22" />
	</linearGradient>
	<path
   id="path1948_3_"
   inkscape:connector-curvature="0"
   sodipodi:nodetypes="csssccssscc"
   class="st1"
   d="m 108.3,552.8 c -0.1,8.8 -0.2,12 0.5,17.1 1.5,10.1 17.7,6.7 28.7,10 2.8,0.9 5.4,3.6 8.7,4.7 12.4,4.1 34.8,2.4 34.9,10.2 -0.1,7 -158.4,6.8 -158.5,0.1 -0.1,-6 21.9,-5.4 34.1,-9 3.7,-1.1 6.9,-4.1 10.7,-5.4 8.5,-2.9 20.4,-1.8 24.7,-7.3 1.5,-1.9 2.1,-4.8 2,-21.7 5.1,1 8.3,1.3 14.2,1.3 z m 64.4,-193.1 c 27.9,0 85.8,-0.4 85.7,8.5 0,0.7 -0.9,1.4 -1,1.6 -7,8.1 -21.1,8.6 -33.1,11.8 -20.8,5.5 -37.3,17.3 -50.7,29.9 6,-12.2 11.4,-37.4 -0.9,-51.8 z m -47.3,0.2 c 37,12 16.2,62.8 -9.3,71 -3.2,1 -5.4,2.1 -7.9,2.1 -0.1,19.5 0,41.1 0.2,58.8 -4.4,0.7 -10,-0.5 -14.2,-2.1 L 94,433.7 C 63.1,432 43.4,423.2 24.6,409 10.2,398.1 -2.1,388 -21.5,383 c -10.8,-2.9 -28,-3.7 -32.4,-13.2 -0.2,-0.5 -0.4,-0.6 -0.4,-1.4 0.1,-9 139.2,-8.8 155,-9.1 11,-0.3 15,0.2 24.7,0.6 z M 94,514.9 c 6.3,1.1 8.5,1.3 14.2,1.4 0,7.5 0,11.3 0,18.9 -6.1,-0.9 -9.7,-1.6 -14.1,-4.1 z"
   style="fill:url(#path1948_1_)" />
	<g
   id="_300238544_1_">
	</g>
</g>
</svg>