<?xml version="1.0" encoding="UTF-8" standalone="no"?>
<svg
   xmlns:dc="http://purl.org/dc/elements/1.1/"
   xmlns:cc="http://creativecommons.org/ns#"
   xmlns:rdf="http://www.w3.org/1999/02/22-rdf-syntax-ns#"
   xmlns:svg="http://www.w3.org/2000/svg"
   xmlns="http://www.w3.org/2000/svg"
   xmlns:sodipodi="http://sodipodi.sourceforge.net/DTD/sodipodi-0.dtd"
   xmlns:inkscape="http://www.inkscape.org/namespaces/inkscape"
   width="512"
   height="512"
   viewBox="0 0 512 512"
   id="svg2"
   version="1.1"
   inkscape:version="0.92.4 (5da689c313, 2019-01-14)"
   sodipodi:docname="eye.svg">
  <metadata
     id="metadata10">
    <rdf:RDF>
      <cc:Work
         rdf:about="">
        <dc:format>image/svg+xml</dc:format>
        <dc:type
           rdf:resource="http://purl.org/dc/dcmitype/StillImage" />
        <dc:title />
      </cc:Work>
    </rdf:RDF>
  </metadata>
  <defs
     id="defs8" />
  <sodipodi:namedview
     pagecolor="#ffffff"
     bordercolor="#666666"
     borderopacity="1"
     objecttolerance="10"
     gridtolerance="10"
     guidetolerance="10"
     inkscape:pageopacity="0"
     inkscape:pageshadow="2"
     inkscape:window-width="1486"
     inkscape:window-height="991"
     id="namedview6"
     showgrid="false"
     inkscape:zoom="0.70710678"
     inkscape:cx="165.66796"
     inkscape:cy="332.40353"
     inkscape:window-x="0"
     inkscape:window-y="27"
     inkscape:window-maximized="0"
     inkscape:current-layer="svg2" />
  <path
     d="m 255.53264,162.19793 c 91.19235,0 154.764,57.81315 182.42304,88.98497 -26.89126,35.25993 -90.46293,102.95844 -182.42301,102.95844 -84.83901,0 -152.21116,-67.8714 -181.923998,-103.78392 28.657168,-31.61314 92.459158,-88.1595 181.923968,-88.15949 z m 0,-38.38879 c -145.28197,0 -230.620013,125.74205 -230.620013,125.74205 0,0 92.804633,142.97863 230.620043,142.97863 148.42985,0 230.04417,-142.97865 230.04417,-142.97865 0,0 -82.36292,-125.74204 -230.0442,-125.74203 z m -0.2879,57.58296 c -42.4195,0 -76.77738,34.37701 -76.77738,76.77738 0,42.40036 34.35788,76.77737 76.77738,76.77737 42.40031,0 76.77737,-34.37701 76.77737,-76.77737 0,-42.40037 -34.37706,-76.77738 -76.77737,-76.77738 z m -0.0758,76.75832 c -10.82561,10.82546 -28.38845,10.82546 -39.23325,0 -10.8448,-10.82555 -10.8448,-28.40762 0,-39.23331 10.82561,-10.82574 28.38843,-10.82574 39.23325,0 10.84481,10.82569 10.84481,28.38826 0,39.23331 z"
     id="path4"
     style="fill:#131313;fill-opacity:1;stroke:none;stroke-width:19.19434547"
     inkscape:connector-curvature="0" />
</svg>
