<?xml version="1.0" encoding="UTF-8" standalone="no"?>
<!-- Created with Inkscape (http://www.inkscape.org/) -->

<svg
   xmlns:dc="http://purl.org/dc/elements/1.1/"
   xmlns:cc="http://creativecommons.org/ns#"
   xmlns:rdf="http://www.w3.org/1999/02/22-rdf-syntax-ns#"
   xmlns:svg="http://www.w3.org/2000/svg"
   xmlns="http://www.w3.org/2000/svg"
   xmlns:sodipodi="http://sodipodi.sourceforge.net/DTD/sodipodi-0.dtd"
   xmlns:inkscape="http://www.inkscape.org/namespaces/inkscape"
   version="1.1"
   width="512"
   height="512"
   viewBox="0 0 512 512"
   id="svg3456"
   xml:space="preserve"
   inkscape:version="0.48.5 r10040"
   sodipodi:docname="info.svg"><sodipodi:namedview
     pagecolor="#ffffff"
     bordercolor="#666666"
     borderopacity="1"
     objecttolerance="10"
     gridtolerance="10"
     guidetolerance="10"
     inkscape:pageopacity="0"
     inkscape:pageshadow="2"
     inkscape:window-width="1258"
     inkscape:window-height="802"
     id="namedview7"
     showgrid="false"
     inkscape:zoom="0.4609375"
     inkscape:cx="-503.32204"
     inkscape:cy="256"
     inkscape:window-x="0"
     inkscape:window-y="25"
     inkscape:window-maximized="0"
     inkscape:current-layer="svg3456" /><metadata
     id="metadata3463"><rdf:RDF><cc:Work
         rdf:about=""><dc:format>image/svg+xml</dc:format><dc:type
           rdf:resource="http://purl.org/dc/dcmitype/StillImage" /><dc:title /></cc:Work></rdf:RDF></metadata><defs
     id="defs3461" /><g
     style="font-size:388.79998779000004561px;font-style:italic;font-variant:normal;font-weight:normal;font-stretch:normal;line-height:125%;letter-spacing:0px;word-spacing:0px;fill:#131313;fill-opacity:1;stroke:none;font-family:Bitstream Charter;-inkscape-font-specification:Bitstream Charter Italic"
     id="text3024"><path
       d="m 289.51213,92.900291 c -12.83039,0 -23.09472,10.264329 -23.09472,23.094709 0,13.25807 10.26433,23.09472 23.09472,23.09472 12.40271,0 23.09472,-10.26433 23.09472,-23.09472 0,-12.4027 -10.69201,-23.094709 -23.09472,-23.094709 m -8.5536,94.944949 -63.29664,13.68576 0,11.11968 34.64208,6.4152 -25.23312,127.44864 c -1.71072,9.40895 -2.56608,17.1072 -2.56608,22.23936 0,18.8179 8.9813,28.22688 27.37152,28.22688 16.25182,0 36.7805,-5.13217 60.30288,-14.9688 l 0,-13.25808 c -13.25807,4.27679 -23.52241,6.4152 -31.64832,6.4152 -13.25807,0 -20.52864,-5.55985 -20.52864,-16.67952 0,-2.56608 0.42768,-5.98753 1.28304,-10.692 l 30.79296,-159.95232 -11.11968,0"
       id="path2985"
       inkscape:connector-curvature="0"
       style="fill:#131313;fill-opacity:1" /></g></svg>