<?xml version="1.0" encoding="UTF-8" standalone="no"?>
<!-- License Agreement at http://iconmonstr.com/license/ -->

<svg
   xmlns:dc="http://purl.org/dc/elements/1.1/"
   xmlns:cc="http://creativecommons.org/ns#"
   xmlns:rdf="http://www.w3.org/1999/02/22-rdf-syntax-ns#"
   xmlns:svg="http://www.w3.org/2000/svg"
   xmlns="http://www.w3.org/2000/svg"
   xmlns:sodipodi="http://sodipodi.sourceforge.net/DTD/sodipodi-0.dtd"
   xmlns:inkscape="http://www.inkscape.org/namespaces/inkscape"
   version="1.1"
   x="0px"
   y="0px"
   width="512px"
   height="512px"
   viewBox="0 0 512 512"
   enable-background="new 0 0 512 512"
   xml:space="preserve"
   id="svg2"
   inkscape:version="0.48.5 r10040"
   sodipodi:docname="nocut.svg"><metadata
     id="metadata9"><rdf:RDF><cc:Work
         rdf:about=""><dc:format>image/svg+xml</dc:format><dc:type
           rdf:resource="http://purl.org/dc/dcmitype/StillImage" /><dc:title /></cc:Work></rdf:RDF></metadata><defs
     id="defs7" /><sodipodi:namedview
     pagecolor="#ffffff"
     bordercolor="#666666"
     borderopacity="1"
     objecttolerance="10"
     gridtolerance="10"
     guidetolerance="10"
     inkscape:pageopacity="0"
     inkscape:pageshadow="2"
     inkscape:window-width="1329"
     inkscape:window-height="774"
     id="namedview5"
     showgrid="false"
     inkscape:zoom="0.65186406"
     inkscape:cx="-19.176804"
     inkscape:cy="317.63665"
     inkscape:window-x="0"
     inkscape:window-y="25"
     inkscape:window-maximized="0"
     inkscape:current-layer="svg2" /><path
     style="fill:#646464;fill-opacity:1;stroke:none"
     id="cut-4-icon"
     d="m 296.59898,216.55928 c -40.3371,19.3563 -81.3258,38.9502 -92.7,44.4015 -21.465,10.2861 -41.1291,-16.7175 -41.1291,-16.7175 l 95.9175,-45.9729 37.9116,18.2889 z m 140.5638,51.3477 c -11.2194,23.2569 -41.1309,32.1543 -66.6765,19.8351 -22.5558,-10.8801 -34.2837,-34.7175 -29.0007,-56.1609 3.0141,-12.231 -3.4452,-13.8915 -13.2939,-18.6489 l -164.7225,-79.4475 c 0,0 19.7334,-26.9541 41.1687,-16.6167 13.1661,6.3513 66.0438,31.7826 111.6063,53.8182 l 11.4435,-5.4846 c 9.8622,-4.7331 16.326,-6.3792 13.3407,-18.6165 -5.229,-21.4569 6.5565,-45.2655 29.1402,-56.087999 25.5735,-12.258 55.4634,-3.2859 66.6252,19.998899 11.1618,23.2848 -0.783,51.7671 -26.1441,64.4625 -18.8739,9.4482 -32.1057,2.0889 -50.8491,11.169 -1.8801,0.9099 -3.8385,1.8585 -5.8563,2.8341 2.2149,1.0782 4.3605,2.1213 6.4098,3.1212 18.7236,9.1287 31.9734,1.8018 50.8221,11.295 25.3305,12.7611 37.2042,41.2713 25.9866,64.5291 z m -72.3699,-122.8995 c 5.6736,11.8323 21.7782,15.9525 35.9028,9.1827 14.1246,-6.7698 20.9988,-21.9033 15.3288,-33.7383 -5.6736,-11.835 -21.7773,-15.9534 -35.9037,-9.1836 -14.1246,6.7671 -21.0006,21.9006 -15.3279,33.7392 z m -42.4512,41.9436 c 0,-4.7241 -3.8295,-8.5545 -8.5536,-8.5545 -4.725,0 -8.5545,3.8304 -8.5545,8.5545 0,4.725 3.8295,8.5536 8.5545,8.5536 4.7241,0 8.5536,-3.8295 8.5536,-8.5536 z m 78.831,37.1727 c -14.1075,-6.804 -30.2229,-2.7234 -35.9253,9.0954 -5.7024,11.8224 1.1367,26.973 15.246,33.7788 14.1066,6.8022 30.2202,2.7243 35.9253,-9.0972 5.697,-11.8215 -1.1412,-26.9703 -15.246,-33.777 z m -303.2334,11.1357 h -27.3393 v 44.2026 h 27.3393 v -44.2026 z m 58.6593,-73.7352 v 27.3132 h 58.3236 l -58.3236,-27.3132 z m -58.6593,27.3132 h 35.7282 v -27.3393 h -63.0675 v 50.8311 h 27.3393 v -23.4918 z m 0,180.6912 h -27.3393 v 57.4614 h 63.0675 v -27.3393 h -35.7282 v -30.1221 z m 0,-67.1355 h -27.3393 v 44.2044 h 27.3393 v -44.2044 z m 240.894,97.2567 h -29.1402 v 27.3393 h 56.4795 v -57.4614 h -27.3393 v 30.1221 z m 0,-103.0635 v 50.0112 h 27.3393 v -32.9076 c -10.827,-3.915 -19.3941,-9.7992 -27.3393,-17.1036 z m -182.2356,130.4028 h 54.5589 v -27.3393 h -54.5589 v 27.3393 z m 77.4891,0 h 52.6752 v -27.3393 h -52.6752 v 27.3393 z"
     inkscape:connector-curvature="0" /><path
     transform="matrix(0.9518477,0,0,0.9465184,-10.223069,-15.92107)"
     style="fill:none;fill-opacity:1;fill-rule:nonzero;stroke:#000000;stroke-width:31.60625152;stroke-linecap:round;stroke-linejoin:round;stroke-miterlimit:4;stroke-opacity:1;stroke-dasharray:none"
     d="M 55.226373,290.0639 C 55.36838,161.70726 156.78983,57.77188 281.75752,57.917737 406.72522,58.063595 507.91643,162.23546 507.77442,290.5921 507.63241,418.94875 406.21096,522.88413 281.24327,522.73827 156.7007,522.59291 55.685694,419.10178 55.227756,291.18256"
     id="path3750" /><path
     style="fill:none;stroke:#000000;stroke-width:30;stroke-linecap:butt;stroke-linejoin:miter;stroke-opacity:1;stroke-miterlimit:4;stroke-dasharray:none"
     d="M 101.2481,409.21783 415.73085,108.54165"
     id="path3753"
     inkscape:connector-curvature="0" /></svg>