<?xml version="1.0" encoding="UTF-8" standalone="no"?>
<!-- The icon can be used freely in both personal and commercial projects with no attribution required, but always appreciated. 
You may NOT sub-license, resell, rent, redistribute or otherwise transfer the icon without express written permission from iconmonstr.com -->

<svg
   xmlns:dc="http://purl.org/dc/elements/1.1/"
   xmlns:cc="http://creativecommons.org/ns#"
   xmlns:rdf="http://www.w3.org/1999/02/22-rdf-syntax-ns#"
   xmlns:svg="http://www.w3.org/2000/svg"
   xmlns="http://www.w3.org/2000/svg"
   xmlns:sodipodi="http://sodipodi.sourceforge.net/DTD/sodipodi-0.dtd"
   xmlns:inkscape="http://www.inkscape.org/namespaces/inkscape"
   version="1.1"
   x="0px"
   y="0px"
   width="546.13336"
   height="546.13336"
   viewBox="0 0 512 512"
   enable-background="new 0 0 512 512"
   xml:space="preserve"
   id="svg2"
   inkscape:version="0.92.1 r15371"
   sodipodi:docname="2dt.svg"><metadata
     id="metadata9"><rdf:RDF><cc:Work
         rdf:about=""><dc:format>image/svg+xml</dc:format><dc:type
           rdf:resource="http://purl.org/dc/dcmitype/StillImage" /><dc:title /></cc:Work></rdf:RDF></metadata><defs
     id="defs7" /><sodipodi:namedview
     pagecolor="#ffffff"
     bordercolor="#666666"
     borderopacity="1"
     objecttolerance="10"
     gridtolerance="10"
     guidetolerance="10"
     inkscape:pageopacity="0"
     inkscape:pageshadow="2"
     inkscape:window-width="1920"
     inkscape:window-height="1003"
     id="namedview5"
     showgrid="false"
     inkscape:zoom="1.3037281"
     inkscape:cx="168.47135"
     inkscape:cy="247.13622"
     inkscape:window-x="0"
     inkscape:window-y="24"
     inkscape:window-maximized="1"
     inkscape:current-layer="svg2"
     showguides="false"
     inkscape:guide-bbox="true"><sodipodi:guide
       position="-392.62402,128.7174"
       orientation="1,0"
       id="guide4485"
       inkscape:locked="false" /><sodipodi:guide
       position="257.4348,113.61648"
       orientation="0,1"
       id="guide4487"
       inkscape:locked="false" /><sodipodi:guide
       position="-16.539107,128.7174"
       orientation="0,1"
       id="guide4489"
       inkscape:locked="false" /></sodipodi:namedview><g
     aria-label="t"
     style="font-style:normal;font-variant:normal;font-weight:normal;font-stretch:normal;font-size:215.62197876px;line-height:1.25;letter-spacing:0px;word-spacing:0px;fill:#141414;fill-opacity:1;stroke:none;stroke-width:1.12303114"
     id="text818"
     transform="matrix(1.4404501,0,0,1.4404501,-187.44124,-303.53876)"><path
       d="m 436.15918,331.26541 v 31.69643 h -15.30916 v 15.95602 h 15.30916 v 75.03645 c 0,13.79981 4.09682,24.58091 23.07155,24.58091 1.9406,0 8.62488,-0.64687 14.23105,-1.72498 v -14.87791 h -6.68428 c -3.88119,0 -11.42796,-0.64687 -11.42796,-9.05613 v -73.95834 h 18.32787 v -15.95602 h -18.32787 v -31.69643 z"
       style="font-style:normal;font-variant:normal;font-weight:normal;font-stretch:normal;fill:#141414;fill-opacity:1;stroke-width:1.12303114"
       id="path4496"
       inkscape:connector-curvature="0" /></g><g
     aria-label="2D"
     style="font-style:normal;font-variant:normal;font-weight:normal;font-stretch:normal;font-size:323.26873779px;line-height:1.25;letter-spacing:0px;word-spacing:0px;fill:#1d1d1d;fill-opacity:1;stroke:none;stroke-width:1.6836915"
     id="text4489"><path
       d="m 44.204234,236.10404 c 0.969806,-15.84017 2.909419,-56.57203 46.22743,-56.57203 33.619946,0 45.257626,23.27535 45.257626,41.70167 0,29.74072 -19.07286,42.02494 -48.813583,57.21857 -61.42106,31.68033 -74.351809,56.8953 -77.2612279,105.06234 H 166.39982 V 356.36001 H 41.941353 c 1.293075,-9.05152 12.607481,-29.74072 43.641279,-46.55069 56.248758,-30.38727 80.817188,-46.22743 80.817188,-87.28256 0,-42.99475 -32.00361,-68.85625 -71.765663,-68.85625 -24.891693,0 -79.200841,7.75845 -79.200841,82.43353 z"
       style="font-style:normal;font-variant:normal;font-weight:normal;font-stretch:normal;fill:#1d1d1d;fill-opacity:1;stroke-width:1.6836915"
       id="path4488" /><path
       d="m 206.64678,383.51459 h 93.74793 c 76.93796,0 99.89004,-67.88644 99.89004,-120.57924 0,-67.56317 -37.49917,-114.11387 -98.59696,-114.11387 h -95.04101 z m 31.68033,-207.53853 h 59.15818 c 42.99475,0 70.14932,29.74072 70.14932,88.8989 0,59.15818 -26.83131,91.48505 -67.88643,91.48505 h -61.42107 z"
       style="font-style:normal;font-variant:normal;font-weight:normal;font-stretch:normal;fill:#1d1d1d;fill-opacity:1;stroke-width:1.6836915"
       id="path4490" /></g></svg>
