<?xml version="1.0" encoding="UTF-8" standalone="no"?>
<!-- Created with Inkscape (http://www.inkscape.org/) -->

<svg
   xmlns:dc="http://purl.org/dc/elements/1.1/"
   xmlns:cc="http://creativecommons.org/ns#"
   xmlns:rdf="http://www.w3.org/1999/02/22-rdf-syntax-ns#"
   xmlns:svg="http://www.w3.org/2000/svg"
   xmlns="http://www.w3.org/2000/svg"
   xmlns:sodipodi="http://sodipodi.sourceforge.net/DTD/sodipodi-0.dtd"
   xmlns:inkscape="http://www.inkscape.org/namespaces/inkscape"
   version="1.1"
   width="512"
   height="512"
   viewBox="0 0 512 512"
   id="svg3456"
   xml:space="preserve"
   inkscape:version="0.92.4 (5da689c313, 2019-01-14)"
   sodipodi:docname="3d.svg"><sodipodi:namedview
   pagecolor="#ffffff"
   bordercolor="#666666"
   borderopacity="1"
   objecttolerance="10"
   gridtolerance="10"
   guidetolerance="10"
   inkscape:pageopacity="0"
   inkscape:pageshadow="2"
   inkscape:window-width="1517"
   inkscape:window-height="962"
   id="namedview3077"
   showgrid="true"
   inkscape:zoom="1.3037281"
   inkscape:cx="235.30003"
   inkscape:cy="295.81617"
   inkscape:window-x="0"
   inkscape:window-y="56"
   inkscape:window-maximized="0"
   inkscape:current-layer="svg3456"
   inkscape:snap-bbox="true"
   inkscape:snap-global="true"><inkscape:grid
     type="xygrid"
     id="grid3085" /></sodipodi:namedview><metadata
   id="metadata3463"><rdf:RDF><cc:Work
       rdf:about=""><dc:format>image/svg+xml</dc:format><dc:type
         rdf:resource="http://purl.org/dc/dcmitype/StillImage" /><dc:title /></cc:Work></rdf:RDF></metadata><defs
   id="defs3461" /><text
   xml:space="preserve"
   style="font-style:normal;font-weight:normal;line-height:0%;letter-spacing:0px;word-spacing:0px;fill:#000000;fill-opacity:1;stroke:none"
   x="153.40622"
   y="297.99832"
   id="text3876"><tspan
     sodipodi:role="line"
     id="tspan3878"
     x="153.40622"
     y="297.99832"
     style="font-size:40px;line-height:1.25"> </tspan></text>

<g
   style="font-size:288px;font-style:normal;font-variant:normal;font-weight:normal;font-stretch:normal;line-height:125%;letter-spacing:0px;word-spacing:0px;fill:#131313;fill-opacity:1;stroke:none"
   id="text2986"><path
     d="m 145.088,247.248 c 36.28796,0 59.616,6.04803 59.616,37.44 0,23.61598 -18.43203,39.744 -44.64,39.744 -38.01596,0 -42.912,-25.92002 -43.776,-45.216 l -26.208,0 c 0,40.31996 24.48004,68.256 68.256,68.256 52.12795,0 73.44,-32.54403 73.44,-65.952 0,-27.35997 -14.11202,-41.18401 -33.984,-47.52 l 0,-0.576 C 209.02399,229.968 224,217.29597 224,191.088 c 0,-31.10397 -23.61604,-53.856 -63.072,-53.856 -53.85595,0 -65.952,37.15203 -65.952,67.104 l 25.056,0 c 1.152,-19.87198 7.48803,-44.064 39.744,-44.064 30.52797,0 37.728,20.16001 37.728,32.256 0,32.25597 -26.49603,33.408 -52.416,33.408 l 0,21.312"
     style="fill:#131313;fill-opacity:1"
     id="path3050" /><path
     d="m 263.312,342 83.52,0 c 68.54393,0 88.992,-60.48005 88.992,-107.424 0,-60.19194 -33.40805,-101.664 -87.84,-101.664 l -84.672,0 0,209.088 m 28.224,-184.896 52.704,0 c 38.30396,0 62.496,26.49605 62.496,79.2 0,52.70395 -23.90404,81.504 -60.48,81.504 l -54.72,0 0,-160.704"
     style="fill:#131313;fill-opacity:1"
     id="path3052" /></g></svg>
