<?xml version="1.0" encoding="UTF-8" standalone="no"?>
<!-- The icon can be used freely in both personal and commercial projects with no attribution required, but always appreciated. 
You may NOT sub-license, resell, rent, redistribute or otherwise transfer the icon without express written permission from iconmonstr.com -->

<svg
   xmlns:dc="http://purl.org/dc/elements/1.1/"
   xmlns:cc="http://creativecommons.org/ns#"
   xmlns:rdf="http://www.w3.org/1999/02/22-rdf-syntax-ns#"
   xmlns:svg="http://www.w3.org/2000/svg"
   xmlns="http://www.w3.org/2000/svg"
   xmlns:sodipodi="http://sodipodi.sourceforge.net/DTD/sodipodi-0.dtd"
   xmlns:inkscape="http://www.inkscape.org/namespaces/inkscape"
   version="1.1"
   x="0px"
   y="0px"
   width="546.13336"
   height="546.13336"
   viewBox="0 0 512 512"
   enable-background="new 0 0 512 512"
   xml:space="preserve"
   id="svg2"
   inkscape:version="0.92.1 r15371"
   sodipodi:docname="3dt.svg"><metadata
     id="metadata9"><rdf:RDF><cc:Work
         rdf:about=""><dc:format>image/svg+xml</dc:format><dc:type
           rdf:resource="http://purl.org/dc/dcmitype/StillImage" /><dc:title /></cc:Work></rdf:RDF></metadata><defs
     id="defs7" /><sodipodi:namedview
     pagecolor="#ffffff"
     bordercolor="#666666"
     borderopacity="1"
     objecttolerance="10"
     gridtolerance="10"
     guidetolerance="10"
     inkscape:pageopacity="0"
     inkscape:pageshadow="2"
     inkscape:window-width="1920"
     inkscape:window-height="1003"
     id="namedview5"
     showgrid="false"
     inkscape:zoom="1.3037281"
     inkscape:cx="-73.143444"
     inkscape:cy="250.20435"
     inkscape:window-x="0"
     inkscape:window-y="24"
     inkscape:window-maximized="1"
     inkscape:current-layer="svg2"
     showguides="true"
     inkscape:guide-bbox="true"><sodipodi:guide
       position="-392.62402,128.7174"
       orientation="1,0"
       id="guide4485"
       inkscape:locked="false" /><sodipodi:guide
       position="257.4348,113.61648"
       orientation="0,1"
       id="guide4487"
       inkscape:locked="false" /><sodipodi:guide
       position="-16.539107,128.7174"
       orientation="0,1"
       id="guide4489"
       inkscape:locked="false" /><sodipodi:guide
       position="-568.80147,113.61648"
       orientation="1,0"
       id="guide4493"
       inkscape:locked="false" /></sodipodi:namedview><g
     aria-label="t"
     style="font-style:normal;font-variant:normal;font-weight:normal;font-stretch:normal;font-size:215.62197876px;line-height:1.25;font-family:Helios;-inkscape-font-specification:Helios;letter-spacing:0px;word-spacing:0px;fill:#141414;fill-opacity:1;stroke:none;stroke-width:1.12303114"
     id="text818"
     transform="matrix(1.4404501,0,0,1.4404501,-187.44124,-303.53876)"><path
       d="m 436.15918,331.26541 v 31.69643 h -15.30916 v 15.95602 h 15.30916 v 75.03645 c 0,13.79981 4.09682,24.58091 23.07155,24.58091 1.9406,0 8.62488,-0.64687 14.23105,-1.72498 v -14.87791 h -6.68428 c -3.88119,0 -11.42796,-0.64687 -11.42796,-9.05613 v -73.95834 h 18.32787 v -15.95602 h -18.32787 v -31.69643 z"
       style="font-style:normal;font-variant:normal;font-weight:normal;font-stretch:normal;font-family:Helios;-inkscape-font-specification:Helios;fill:#141414;fill-opacity:1;stroke-width:1.12303114"
       id="path4496"
       inkscape:connector-curvature="0" /></g><g
     aria-label="3D"
     style="font-style:normal;font-variant:normal;font-weight:normal;font-stretch:normal;font-size:323.26873779px;line-height:1.25;font-family:Helios;-inkscape-font-specification:Helios;letter-spacing:0px;word-spacing:0px;fill:#1d1d1d;fill-opacity:1;stroke:none;stroke-width:1.6836915"
     id="text4489"><path
       d="m 73.944958,277.15917 c 40.731862,0 66.916632,6.78865 66.916632,42.02494 0,26.50804 -20.6892,44.61108 -50.106658,44.61108 -42.671473,0 -48.167042,-29.09418 -49.136848,-50.75319 H 12.200629 c 0,45.25763 27.477843,76.61469 76.614691,76.61469 58.51164,0 82.43353,-36.52936 82.43353,-74.02854 0,-30.71053 -15.84017,-46.22743 -38.14571,-53.33934 v -0.64654 c 12.60748,-3.87922 29.41745,-18.10305 29.41745,-47.5205 0,-34.91302 -26.50803,-60.45126 -70.795852,-60.45126 -60.451254,0 -74.02854,41.70167 -74.02854,75.32162 h 28.12438 c 1.293075,-22.30554 8.404987,-49.46012 44.611086,-49.46012 34.266486,0 42.348206,22.62882 42.348206,36.2061 0,36.2061 -29.74073,37.49918 -58.834912,37.49918 z"
       style="font-style:normal;font-variant:normal;font-weight:normal;font-stretch:normal;font-family:Helios;-inkscape-font-specification:Helios;fill:#1d1d1d;fill-opacity:1;stroke-width:1.6836915"
       id="path4488" /><path
       d="m 206.64678,383.51459 h 93.74793 c 76.93796,0 99.89004,-67.88644 99.89004,-120.57924 0,-67.56317 -37.49917,-114.11387 -98.59696,-114.11387 h -95.04101 z m 31.68033,-207.53853 h 59.15818 c 42.99475,0 70.14932,29.74072 70.14932,88.8989 0,59.15818 -26.83131,91.48505 -67.88643,91.48505 h -61.42107 z"
       style="font-style:normal;font-variant:normal;font-weight:normal;font-stretch:normal;font-family:Helios;-inkscape-font-specification:Helios;fill:#1d1d1d;fill-opacity:1;stroke-width:1.6836915"
       id="path4490" /></g></svg>