<?xml version="1.0" encoding="utf-8"?>
<!-- Generator: Adobe Illustrator 19.0.0, SVG Export Plug-In . SVG Version: 6.00 Build 0)  -->
<svg version="1.1"
	 id="svg2" xmlns:rdf="http://www.w3.org/1999/02/22-rdf-syntax-ns#" xmlns:sodipodi="http://sodipodi.sourceforge.net/DTD/sodipodi-0.dtd" xmlns:svg="http://www.w3.org/2000/svg" xmlns:dc="http://purl.org/dc/elements/1.1/" xmlns:cc="http://creativecommons.org/ns#" xmlns:inkscape="http://www.inkscape.org/namespaces/inkscape" sodipodi:docname="hygeia.svg" inkscape:version="0.48.5 r10040" sodipodi:version="0.32"
	 xmlns="http://www.w3.org/2000/svg" xmlns:xlink="http://www.w3.org/1999/xlink" x="0px" y="0px" viewBox="-99 222.9 396 396"
	 style="enable-background:new -99 222.9 396 396;" xml:space="preserve">
<style type="text/css">
	.st0{fill:url(#path1938_1_);}
	.st1{fill:url(#SVGID_1_);}
	.st2{fill:url(#SVGID_2_);}
	.st3{fill:url(#SVGID_3_);}
	.st4{fill:url(#SVGID_4_);}
</style>
<sodipodi:namedview  gridtolerance="10" showgrid="true" id="namedview27" borderopacity="1" objecttolerance="10" inkscape:cx="188.1454" inkscape:cy="234.75119" inkscape:zoom="0.94192902" inkscape:window-maximized="0" inkscape:window-y="25" inkscape:window-height="676" inkscape:window-x="0" inkscape:current-layer="svg2" inkscape:pageshadow="2" inkscape:pageopacity="0" inkscape:window-width="1095" pagecolor="#ffffff" guidetolerance="10" bordercolor="#666666">
	<inkscape:grid  type="xygrid" id="grid3776" snapvisiblegridlinesonly="true" visible="true" enabled="true" empspacing="5">
		</inkscape:grid>
</sodipodi:namedview>
<linearGradient id="path1938_1_" gradientUnits="userSpaceOnUse" x1="16340.8828" y1="15475.9033" x2="12064.3428" y2="15915.3438" gradientTransform="matrix(3.543307e-002 0 0 3.543307e-002 -394.7086 -155.9404)">
	<stop  offset="0" style="stop-color:#00A15E"/>
	<stop  offset="1" style="stop-color:#007259"/>
</linearGradient>
<path id="path1938_3_" inkscape:connector-curvature="0" sodipodi:nodetypes="ccccc" class="st0" d="M94.7,481
	c-2.1,1-4.5,2.2-5.4,4.3c-3.1-1.5-6.5-3.5-7.7-5.3c0.7-4.1,7.7-8.5,13.1-10.2V481z M78.7,507.7c-5.1,37.6,58.7,23.2,69.3,48.5
	c-5.1,2-9.2-4.4-14-5.4c-15.7-3.2-32.7-0.1-46.1-6c-12.4-5.5-27.4-24.3-18.1-43C72.3,504.7,74.1,505.7,78.7,507.7z M109.2,276.4
	c-3.2-14.1-15.7-24.3-34.7-20.7c-15.4,2.9-24.6,23.6-19.4,40.7c15.3,50.6,115.4,20.7,123.6,78.1c3.3,23-6.4,41.6-16.7,53.5
	c-11.4,13.2-28.8,16-48.2,19.7l-0.4-12.4c8.4-2.2,10.4-3.3,17.1-8c12.9-8.9,28.3-33.4,20.1-54.7c-3.8-9.9-17.9-15.1-28.1-18.7
	c-11.5-4.1-24.2-5.6-36.7-10c-24.1-8.5-50.6-27.3-48.1-62.1c1.6-23.4,23.9-41.6,51.4-38.8c13.3,1.4,23.2,8.5,28.1,18.7
	c1.7,3.6,1.5,8.5,4,12.7c2.4,4.1,7.1,2.9,9.4,8.7c2.3,5.7-3,31.9-9.4,33.4c-8.3,2.1-21.4-19.9-20.7-28.1
	C101.1,281.4,106.1,281.4,109.2,276.4z M94.5,437.1l0.1,13.1c-19,3.7-23.6,22.3-15.4,31.3c10.9,11.8,34.7,16.2,46.8,9.4
	c11.3-6.4,5.8-22-12.2-15.1c0.1-2.6,0-6.6-0.2-10.4c19.6-8,42.1,0.8,33.9,27.7c-5.2,17.2-28,22.3-50.5,18
	c-12.2-2.3-26.3-10.1-32.5-18.2C46.7,469.7,68.9,438.5,94.5,437.1z"/>
<g id="_300238544_1_">
</g>
<g>
	<linearGradient id="SVGID_1_" gradientUnits="userSpaceOnUse" x1="90.4836" y1="412.9575" x2="139.9323" y2="462.4063">
		<stop  offset="0" style="stop-color:#008B5C"/>
		<stop  offset="1" style="stop-color:#008B5C"/>
	</linearGradient>
	<path class="st1" d="M97.1,432.7l0.2,56c4.2,1.6,9.8,2.8,14.2,2.1c-0.2-17.7-0.3-39.3-0.2-58.8c2.5,0,4.7-1.1,7.9-2.1
		c25.5-8.2,50.8-64.2,4.9-71.2c-14.9-0.6-175.2-0.3-175.3,8.7c0,0.8,0.2,0.9,0.4,1.4c4.4,9.5,21.6,10.3,32.4,13.2
		c19.4,5,31.7,15.1,46.1,26C46.5,422.2,66.2,431,97.1,432.7z"/>
	<linearGradient id="SVGID_2_" gradientUnits="userSpaceOnUse" x1="107.5694" y1="526.0583" x2="113.5249" y2="532.0137">
		<stop  offset="0" style="stop-color:#008B5C"/>
		<stop  offset="1" style="stop-color:#008B5C"/>
	</linearGradient>
	<path class="st2" d="M97.2,530.1c4.4,2.5,8,3.2,14.1,4.1c0-7.6,0-11.4,0-18.9c-5.7-0.1-7.9-0.3-14.2-1.4L97.2,530.1z"/>
	<linearGradient id="SVGID_3_" gradientUnits="userSpaceOnUse" x1="117.4243" y1="605.7151" x2="144.9833" y2="633.2741">
		<stop  offset="0" style="stop-color:#008B5C"/>
		<stop  offset="1" style="stop-color:#008B5C"/>
	</linearGradient>
	<path class="st3" d="M149.3,583.6c-3.3-1.1-5.9-3.8-8.7-4.7c-11-3.3-27.2,0.1-28.7-10c-0.7-5.1-0.6-8.3-0.5-17.1
		c-5.9,0-9.1-0.3-14.2-1.3c0.1,16.9-0.5,19.8-2,21.7c-4.3,5.5-16.2,4.4-24.7,7.3c-3.8,1.3-7,4.3-10.7,5.4c-12.2,3.6-34.2,3-34.1,9
		c0.1,6.7,158.4,6.9,158.5-0.1C184.1,586,161.7,587.7,149.3,583.6z"/>
	<linearGradient id="SVGID_4_" gradientUnits="userSpaceOnUse" x1="213.9529" y1="382.9595" x2="230.1974" y2="399.204">
		<stop  offset="0" style="stop-color:#008B5C"/>
		<stop  offset="1" style="stop-color:#008B5C"/>
	</linearGradient>
	<path class="st4" d="M176.6,358.7c2.8,4.4,4.8,9.6,5.7,15.8c2,13.6-0.6,25.7-5.2,35.7c13.3-12.5,29.7-24.1,50.4-29.6
		c12-3.2,26.1-3.7,33.1-11.8c0.1-0.2,1-0.9,1-1.6C261.6,358.4,204.7,358.7,176.6,358.7z"/>
</g>
</svg>
