<?xml version="1.0" encoding="UTF-8" standalone="no"?>
<svg
   xmlns:dc="http://purl.org/dc/elements/1.1/"
   xmlns:cc="http://creativecommons.org/ns#"
   xmlns:rdf="http://www.w3.org/1999/02/22-rdf-syntax-ns#"
   xmlns:svg="http://www.w3.org/2000/svg"
   xmlns="http://www.w3.org/2000/svg"
   xmlns:sodipodi="http://sodipodi.sourceforge.net/DTD/sodipodi-0.dtd"
   xmlns:inkscape="http://www.inkscape.org/namespaces/inkscape"
   width="256"
   height="256"
   viewBox="0 0 256 256"
   version="1.1"
   id="svg4"
   sodipodi:docname="anchor.svg"
   inkscape:version="0.92.1 r15371">
  <metadata
     id="metadata10">
    <rdf:RDF>
      <cc:Work
         rdf:about="">
        <dc:format>image/svg+xml</dc:format>
        <dc:type
           rdf:resource="http://purl.org/dc/dcmitype/StillImage" />
        <dc:title></dc:title>
      </cc:Work>
    </rdf:RDF>
  </metadata>
  <defs
     id="defs8" />
  <sodipodi:namedview
     pagecolor="#ffffff"
     bordercolor="#666666"
     borderopacity="1"
     objecttolerance="10"
     gridtolerance="10"
     guidetolerance="10"
     inkscape:pageopacity="0"
     inkscape:pageshadow="2"
     inkscape:window-width="1183"
     inkscape:window-height="899"
     id="namedview6"
     showgrid="false"
     inkscape:zoom="1.2291667"
     inkscape:cx="110.50413"
     inkscape:cy="94.282192"
     inkscape:window-x="0"
     inkscape:window-y="24"
     inkscape:window-maximized="0"
     inkscape:current-layer="svg4" />
  <path
     d="m 174.53598,176.10614 14.364,8.307 c -13.572,18.495 -32.454,31.932 -51.561,34.875 V 92.361136 c 0,-21.51 18,-23.571 18,-44.073 0,-14.886 -12.114,-27 -27,-27 -14.886,0 -27,12.114 -27,27 0,20.673 18,22.383 18,44.073 V 219.28814 c -19.107,-2.943 -37.988997,-16.191 -51.560997,-34.686 l 14.364,-8.496 -43.803,-25.299 v 50.589 l 13.5,-8.172 c 19.602,27.693 46.827,44.064 76.499997,44.064 29.673,0 56.538,-16.182 76.122,-43.875 l 13.878,7.983 v -50.589 z m -55.197,-127.818004 c 0,-4.959 4.041,-9 9,-9 4.959,0 9,4.041 9,9 0,4.959 -4.041,9 -9,9 -4.959,0 -9,-4.041 -9,-9 z"
     id="path2"
     inkscape:connector-curvature="0"
     style="stroke-width:9;fill:#131313;stroke:none;fill-opacity:1" />
</svg>
