<?xml version="1.0" encoding="utf-8"?>

<!-- License Agreement at http://iconmonstr.com/license/ -->

<!DOCTYPE svg PUBLIC "-//W3C//DTD SVG 1.1//EN" "http://www.w3.org/Graphics/SVG/1.1/DTD/svg11.dtd">
<svg version="1.1" xmlns="http://www.w3.org/2000/svg" xmlns:xlink="http://www.w3.org/1999/xlink" x="0px" y="0px"
	 width="512px" height="512px" viewBox="0 0 512 512" enable-background="new 0 0 512 512" xml:space="preserve">
<path style="fill:#191919;" id="checkbox-20-icon" d="M115.08,290.249l-37.234,15.472c-8.85-31.625-9.361-65.786-0.115-99.043l37.273,15.389
	C112.392,232.953,111,244.313,111,256C111,267.8,112.419,279.267,115.08,290.249z M180.298,132.313l-15.477-37.242
	c-28.582,16.169-53.047,40.019-69.959,70.111l37.277,15.392C144.134,160.922,160.673,144.35,180.298,132.313z M256,111
	c11.688,0,23.047,1.392,33.934,4.003l15.389-37.272c-33.256-9.246-67.418-8.734-99.043,0.115l15.473,37.234
	C232.734,112.42,244.201,111,256,111z M379.688,180.298l37.242-15.476c-16.17-28.584-40.02-53.048-70.111-69.958l-15.393,37.276
	C351.078,144.134,367.65,160.674,379.688,180.298z M434.154,206.277l-37.232,15.474C399.58,232.733,401,244.2,401,256
	c0,11.687-1.391,23.047-4.002,33.933l37.271,15.39C443.516,272.065,443.006,237.902,434.154,206.277z M331.705,379.686
	l15.473,37.243c28.584-16.169,53.049-40.02,69.959-70.112l-37.277-15.391C367.867,351.078,351.328,367.649,331.705,379.686z
	 M132.314,331.702l-37.242,15.475c16.17,28.584,40.02,53.049,70.111,69.959l15.391-37.276
	C160.921,367.865,144.349,351.325,132.314,331.702z M256,401c-11.686,0-23.047-1.392-33.932-4.003l-15.391,37.271
	c33.258,9.246,67.42,8.736,99.043-0.114l-15.469-37.234C279.268,399.58,267.801,401,256,401z"/>
</svg>
