<?xml version="1.0" encoding="UTF-8" standalone="no"?>
<!-- The icon can be used freely in both personal and commercial projects with no attribution required, but always appreciated. 
You may NOT sub-license, resell, rent, redistribute or otherwise transfer the icon without express written permission from iconmonstr.com -->

<svg
   xmlns:dc="http://purl.org/dc/elements/1.1/"
   xmlns:cc="http://creativecommons.org/ns#"
   xmlns:rdf="http://www.w3.org/1999/02/22-rdf-syntax-ns#"
   xmlns:svg="http://www.w3.org/2000/svg"
   xmlns="http://www.w3.org/2000/svg"
   xmlns:sodipodi="http://sodipodi.sourceforge.net/DTD/sodipodi-0.dtd"
   xmlns:inkscape="http://www.inkscape.org/namespaces/inkscape"
   version="1.1"
   x="0px"
   y="0px"
   width="512px"
   height="512px"
   viewBox="0 0 512 512"
   enable-background="new 0 0 512 512"
   xml:space="preserve"
   id="svg2"
   inkscape:version="0.92.4 (5da689c313, 2019-01-14)"
   sodipodi:docname="ctk.svg"><metadata
     id="metadata9"><rdf:RDF><cc:Work
         rdf:about=""><dc:format>image/svg+xml</dc:format><dc:type
           rdf:resource="http://purl.org/dc/dcmitype/StillImage" /><dc:title></dc:title></cc:Work></rdf:RDF></metadata><defs
     id="defs7" /><sodipodi:namedview
     pagecolor="#ffffff"
     bordercolor="#666666"
     borderopacity="1"
     objecttolerance="10"
     gridtolerance="10"
     guidetolerance="10"
     inkscape:pageopacity="0"
     inkscape:pageshadow="2"
     inkscape:window-width="1920"
     inkscape:window-height="996"
     id="namedview5"
     showgrid="true"
     inkscape:zoom="1.3037281"
     inkscape:cx="139.54805"
     inkscape:cy="293.07455"
     inkscape:window-x="0"
     inkscape:window-y="27"
     inkscape:window-maximized="1"
     inkscape:current-layer="svg2"><inkscape:grid
       type="xygrid"
       id="grid2990" /></sodipodi:namedview><g
     aria-label="CTK"
     style="font-style:normal;font-variant:normal;font-weight:normal;font-stretch:normal;font-size:232.31999207px;line-height:1.25;letter-spacing:0px;word-spacing:0px;fill:#000000;fill-opacity:1;stroke:none;stroke-width:1.21000004"
     id="text816"><path
       d="m 160.80983,166.59066 3.51656,52.29469 h -3.51656 q -7.03312,-23.48157 -20.07844,-33.80438 -13.04531,-10.32281 -31.30874,-10.32281 -15.314066,0 -27.678753,7.82719 -12.364688,7.71375 -19.51125,24.72937 -7.033125,17.01563 -7.033125,42.31219 0,20.8725 6.692813,36.18656 6.692812,15.31406 20.078437,23.48156 13.499062,8.1675 30.741558,8.1675 14.97375,0 26.43094,-6.3525 11.45719,-6.46594 25.18312,-25.52344 l 3.51657,2.26875 q -11.57063,20.53219 -26.99813,30.06094 -15.4275,9.52875 -36.64031,9.52875 -38.228435,0 -59.214372,-28.35937 -15.654375,-21.09938 -15.654375,-49.68563 0,-23.02781 10.322812,-42.31218 10.322813,-19.28438 28.359375,-29.83407 18.149999,-10.66312 39.58969,-10.66312 16.67531,0 32.89687,8.1675 4.76437,2.49562 6.80625,2.49562 3.06281,0 5.33156,-2.15531 2.94938,-3.06281 4.19719,-8.50781 z"
       style="stroke-width:1.21000004"
       id="path4521" /><path
       d="m 310.54733,170.10722 1.70156,36.07313 h -4.31063 q -1.24781,-9.52875 -3.40312,-13.6125 -3.51656,-6.57938 -9.41531,-9.64219 -5.78532,-3.17625 -15.31406,-3.17625 H 258.1392 v 117.52125 q 0,14.17968 3.06282,17.69624 4.31062,4.76438 13.27218,4.76438 h 5.33157 v 4.19719 H 214.5792 v -4.19719 h 5.445 q 9.75563,0 13.83938,-5.89875 2.49562,-3.63 2.49562,-16.56187 V 179.74941 h -18.49031 q -10.77656,0 -15.31406,1.58812 -5.89875,2.15532 -10.09594,8.28094 -4.19718,6.12563 -4.99125,16.56188 h -4.31062 l 1.815,-36.07313 z"
       style="stroke-width:1.21000004"
       id="path4523" /><path
       d="m 387.57138,238.62347 56.71875,56.37844 q 13.95281,13.95281 23.82188,19.05749 9.86906,4.99125 19.73812,5.67188 v 4.19719 h -73.16718 v -4.19719 q 6.57937,0 9.41531,-2.15531 2.94937,-2.26875 2.94937,-4.99125 0,-2.7225 -1.13437,-4.87782 -1.02094,-2.15531 -7.03313,-8.05406 l -53.08875,-52.52156 v 49.57219 q 0,11.68406 1.47469,15.4275 1.13438,2.83593 4.76438,4.87781 4.87781,2.7225 10.32281,2.7225 h 5.21812 v 4.19719 h -65.56687 v -4.19719 h 5.445 q 9.52875,0 13.83938,-5.55844 2.7225,-3.63 2.7225,-17.46937 v -99.37125 q 0,-11.68406 -1.47469,-15.54094 -1.13438,-2.7225 -4.65094,-4.76437 -4.99125,-2.7225 -10.43625,-2.7225 h -5.445 v -4.19719 h 65.56687 v 4.19719 h -5.21812 q -5.33156,0 -10.32281,2.60906 -3.51657,1.815 -4.87782,5.445 -1.36125,3.63 -1.36125,14.97375 v 47.07656 q 2.26875,-2.15531 15.54094,-14.40656 33.69094,-30.855 40.72406,-41.17781 3.06282,-4.5375 3.06282,-7.94063 0,-2.60906 -2.38219,-4.5375 -2.38219,-2.04187 -8.05406,-2.04187 h -3.51657 v -4.19719 h 56.49188 v 4.19719 q -4.99125,0.11344 -9.075,1.36125 -4.08375,1.24781 -9.9825,4.87781 -5.89875,3.51656 -14.52,11.45719 -2.49563,2.26875 -23.02781,23.25469 z"
       style="stroke-width:1.21000004"
       id="path4525" /></g></svg>
