<?xml version="1.0" encoding="UTF-8" standalone="no"?>
<!-- Created with Inkscape (http://www.inkscape.org/) -->

<svg
   xmlns:dc="http://purl.org/dc/elements/1.1/"
   xmlns:cc="http://creativecommons.org/ns#"
   xmlns:rdf="http://www.w3.org/1999/02/22-rdf-syntax-ns#"
   xmlns:svg="http://www.w3.org/2000/svg"
   xmlns="http://www.w3.org/2000/svg"
   xmlns:sodipodi="http://sodipodi.sourceforge.net/DTD/sodipodi-0.dtd"
   xmlns:inkscape="http://www.inkscape.org/namespaces/inkscape"
   version="1.1"
   width="512"
   height="512"
   viewBox="0 0 512 512"
   id="svg3047"
   xml:space="preserve"
   inkscape:version="0.48.5 r10040"
   sodipodi:docname="dcm.svg"><sodipodi:namedview
     pagecolor="#ffffff"
     bordercolor="#666666"
     borderopacity="1"
     objecttolerance="10"
     gridtolerance="10"
     guidetolerance="10"
     inkscape:pageopacity="0"
     inkscape:pageshadow="2"
     inkscape:window-width="1920"
     inkscape:window-height="1009"
     id="namedview4069"
     showgrid="true"
     inkscape:zoom="1.3037281"
     inkscape:cx="110.21923"
     inkscape:cy="281.64966"
     inkscape:window-x="0"
     inkscape:window-y="25"
     inkscape:window-maximized="1"
     inkscape:current-layer="svg3047"
     inkscape:snap-grids="true"
     inkscape:snap-to-guides="false"><inkscape:grid
       type="xygrid"
       id="grid4071" /></sodipodi:namedview><metadata
     id="metadata3054"><rdf:RDF><cc:Work
         rdf:about=""><dc:format>image/svg+xml</dc:format><dc:type
           rdf:resource="http://purl.org/dc/dcmitype/StillImage" /><dc:title /></cc:Work></rdf:RDF></metadata><defs
     id="defs3052" /><path
     d="M 176.1487,75.143 29.5,75.517 l 0,363 451,0 0,-308 -231,0 c -14.0382,0 -27.4439,-9.669 -37.3923,-19.5734 z"
     id="folder-2-icon"
     style="fill:none;stroke:#000000;stroke-width:20;stroke-miterlimit:4;stroke-dasharray:none;stroke-opacity:1"
     inkscape:connector-curvature="0"
     sodipodi:nodetypes="cccccssc" /><g
     style="font-size:171.07200623px;font-style:normal;font-variant:normal;font-weight:normal;font-stretch:normal;line-height:125%;letter-spacing:0px;word-spacing:0px;fill:#000000;fill-opacity:1;stroke:none;font-family:Arial;-inkscape-font-specification:Arial"
     id="text4581"><path
       d="m 73.197938,332 0,-122.45682 42.183282,0 c 9.5225,1.3e-4 16.78971,0.58484 21.80166,1.75416 7.01654,1.61506 13.00294,4.53865 17.95922,8.77078 6.45965,5.45748 11.27661,12.44626 14.4509,20.96635 3.22977,8.46458 4.8447,18.15419 4.84482,29.06887 -1.2e-4,9.29987 -1.08602,17.54161 -3.25772,24.72525 -2.17192,7.18372 -4.9563,13.14228 -8.35313,17.87569 -3.39703,4.67777 -7.12809,8.38098 -11.19319,11.10966 -4.00958,2.673 -8.88223,4.70559 -14.61796,6.09778 C 131.33562,331.30391 124.79234,332 117.38597,332 l -44.188032,0 m 16.205063,-14.45091 26.145279,0 c 8.07463,2e-5 14.39515,-0.75176 18.9616,-2.25534 4.62198,-1.50354 8.29735,-3.61967 11.02612,-6.34838 3.84235,-3.84241 6.82163,-8.9935 8.93785,-15.45328 2.17171,-6.51539 3.25762,-14.39516 3.25772,-23.63934 -1e-4,-12.80805 -2.11622,-22.63689 -6.34838,-29.48653 -4.17665,-6.90516 -9.27205,-11.52721 -15.28622,-13.86619 -4.3437,-1.67052 -11.33247,-2.50583 -20.96634,-2.50594 l -25.727629,0 0,93.555"
       style=""
       id="path4586" /><path
       d="m 284.19788,289.06494 16.20506,4.09303 c -3.39705,13.30934 -9.52267,23.47229 -18.37687,30.4889 -8.79872,6.96094 -19.57424,10.44141 -32.3266,10.44141 -13.19799,0 -23.94567,-2.673 -32.24306,-8.019 -8.24178,-5.40168 -14.53446,-13.19792 -18.87806,-23.38875 -4.28795,-10.19077 -6.43192,-21.13336 -6.43191,-32.82778 -1e-5,-12.75237 2.42239,-23.86201 7.26722,-33.32897 4.90048,-9.52246 11.83356,-16.73398 20.79928,-21.6346 9.02133,-4.95606 18.9337,-7.43415 29.73713,-7.43428 12.25117,1.3e-4 22.55335,3.11862 30.90656,9.3555 8.35302,6.23711 14.17236,15.00788 17.45803,26.31235 l -15.95447,3.7589 c -2.84016,-8.9099 -6.96103,-15.39749 -12.36262,-19.46278 -5.40177,-4.06508 -12.19564,-6.09767 -20.38163,-6.09778 -9.41124,1.1e-4 -17.29102,2.25545 -23.63934,6.76603 -6.29273,4.51079 -10.71988,10.58072 -13.28147,18.20981 -2.56165,7.57358 -3.84247,15.39767 -3.84244,23.47229 -3e-5,10.41361 1.50354,19.51851 4.51069,27.31472 3.06278,7.74059 7.79621,13.53208 14.20031,17.3745 6.40401,3.84245 13.3371,5.76367 20.79928,5.76365 9.07699,2e-5 16.76186,-2.61729 23.05463,-7.85193 6.29259,-5.2346 10.55268,-13.003 12.78028,-23.30522"
       style=""
       id="path4588" /><path
       d="m 319.94925,332 0,-122.45682 24.39113,0 28.98534,86.70544 c 2.67293,8.07472 4.622,14.11681 5.84719,18.12629 1.39212,-4.45498 3.56393,-10.99826 6.51544,-19.62985 l 29.31947,-85.20188 21.80166,0 0,122.45682 -15.62035,0 0,-102.49285 L 385.60482,332 l -14.61797,0 -35.41725,-104.247 0,104.247 -15.62035,0"
       style=""
       id="path4590" /></g></svg>