<?xml version="1.0" encoding="UTF-8" standalone="no"?>
<!-- Created with Inkscape (http://www.inkscape.org/) -->

<svg
   xmlns:dc="http://purl.org/dc/elements/1.1/"
   xmlns:cc="http://creativecommons.org/ns#"
   xmlns:rdf="http://www.w3.org/1999/02/22-rdf-syntax-ns#"
   xmlns:svg="http://www.w3.org/2000/svg"
   xmlns="http://www.w3.org/2000/svg"
   xmlns:sodipodi="http://sodipodi.sourceforge.net/DTD/sodipodi-0.dtd"
   xmlns:inkscape="http://www.inkscape.org/namespaces/inkscape"
   version="1.1"
   width="546.13336"
   height="546.13336"
   viewBox="0 0 512 512"
   id="svg3456"
   xml:space="preserve"
   inkscape:version="0.92.1 r15371"
   sodipodi:docname="dcmdir.svg"><sodipodi:namedview
     pagecolor="#ffffff"
     bordercolor="#666666"
     borderopacity="1"
     objecttolerance="10"
     gridtolerance="10"
     guidetolerance="10"
     inkscape:pageopacity="0"
     inkscape:pageshadow="2"
     inkscape:window-width="1517"
     inkscape:window-height="962"
     id="namedview3077"
     showgrid="true"
     inkscape:zoom="1.3037281"
     inkscape:cx="117.07284"
     inkscape:cy="260.16931"
     inkscape:window-x="0"
     inkscape:window-y="25"
     inkscape:window-maximized="0"
     inkscape:current-layer="svg3456"
     inkscape:snap-global="false"><inkscape:grid
       type="xygrid"
       id="grid3085"
       originx="0"
       originy="0"
       spacingx="1"
       spacingy="1" /></sodipodi:namedview><metadata
     id="metadata3463"><rdf:RDF><cc:Work
         rdf:about=""><dc:format>image/svg+xml</dc:format><dc:type
           rdf:resource="http://purl.org/dc/dcmitype/StillImage" /><dc:title /></cc:Work></rdf:RDF></metadata><defs
     id="defs3461" /><g
     transform="scale(1.0488406,0.95343372)"
     style="font-style:normal;font-variant:normal;font-weight:normal;font-stretch:normal;font-size:184.59593201px;line-height:125%;letter-spacing:0px;word-spacing:0px;fill:#000000;fill-opacity:1;stroke:none"
     id="text3770"><path
       d="m 45.215628,223.9632 h 53.53282 c 43.933792,0 57.040142,-38.76518 57.040142,-68.85429 0,-38.58051 -21.41316,-65.162361 -56.301758,-65.162361 H 45.215628 V 223.9632 M 63.306029,105.45261 h 33.781056 c 24.551235,0 40.057315,16.98286 40.057315,50.76388 0,33.78102 -15.32148,52.24065 -38.765144,52.24065 H 63.306029 V 105.45261"
       id="path3777"
       inkscape:connector-curvature="0" /><path
       d="M 289.94369,130.37306 C 287.35935,107.85238 269.4535,86.439226 234.9341,86.439226 c -38.9497,0 -62.39342,28.612414 -62.39342,69.777264 0,51.50221 29.71997,71.25403 60.17827,71.25403 10.15276,0 51.13308,-2.2152 58.51691,-52.79444 h -17.53661 c -6.09166,31.19668 -26.39723,36.73459 -38.21136,36.73459 -33.22724,0 -44.30303,-24.1821 -44.30303,-55.74797 0,-35.25779 19.5672,-53.16363 43.74924,-53.16363 12.9217,0 32.48889,4.24573 37.47297,27.87399 h 17.53662"
       id="path3779"
       inkscape:connector-curvature="0" /><path
       d="M 312.73553,89.946549 V 223.9632 h 17.53661 v -79.19166 c 0,-3.87651 -0.55379,-21.22854 -0.55379,-33.41186 h 0.55379 l 37.65757,112.60352 h 17.9058 l 37.84217,-112.60352 h 0.1846 c 0,12.36791 -0.55379,29.53535 -0.55379,33.41186 V 223.9632 H 440.8451 V 89.946549 H 415.18627 L 376.97491,203.28845 h -0.36919 L 338.57896,89.946549 h -25.84343"
       id="path3781"
       inkscape:connector-curvature="0" /><path
       d="m 45.215628,454.70811 h 53.53282 c 43.933792,0 57.040142,-38.76518 57.040142,-68.85428 0,-38.58051 -21.41316,-65.16237 -56.301758,-65.16237 H 45.215628 V 454.70811 M 63.306029,336.19752 h 33.781056 c 24.551235,0 40.057315,16.98286 40.057315,50.76388 0,33.78103 -15.32148,52.24065 -38.765144,52.24065 H 63.306029 V 336.19752"
       id="path3783"
       inkscape:connector-curvature="0" /><path
       d="m 247.54143,320.69146 h -18.09041 v 134.01665 h 18.09041 V 320.69146"
       id="path3785"
       inkscape:connector-curvature="0" /><path
       d="m 344.5264,397.29878 h 43.74923 c 21.7823,0 23.99747,12.73713 23.99747,23.81287 0,4.98409 0.55379,25.28965 3.13813,33.59646 h 22.15152 v -3.13813 c -5.53788,-3.13813 -7.19925,-5.90708 -7.19925,-13.29091 v -24.36666 c 0,-18.82877 -10.52197,-21.04394 -16.61363,-25.10505 8.49141,-4.98408 18.64419,-12.36794 18.64419,-32.11969 0,-28.24315 -22.15153,-35.99621 -44.11843,-35.99621 H 326.436 v 134.01665 h 18.0904 v -57.40933 m 0,-61.10126 h 45.226 c 9.04519,0 23.99747,1.66139 23.99747,22.33611 0,19.75175 -14.0293,23.25909 -27.3202,23.25909 H 344.5264 v -45.5952"
       id="path3787"
       inkscape:connector-curvature="0" /></g></svg>
