<?xml version="1.0" encoding="UTF-8" standalone="no"?>
<!-- The icon can be used freely in both personal and commercial projects with no attribution required, but always appreciated. 
You may NOT sub-license, resell, rent, redistribute or otherwise transfer the icon without express written permission from iconmonstr.com -->

<svg
   xmlns:dc="http://purl.org/dc/elements/1.1/"
   xmlns:cc="http://creativecommons.org/ns#"
   xmlns:rdf="http://www.w3.org/1999/02/22-rdf-syntax-ns#"
   xmlns:svg="http://www.w3.org/2000/svg"
   xmlns="http://www.w3.org/2000/svg"
   xmlns:sodipodi="http://sodipodi.sourceforge.net/DTD/sodipodi-0.dtd"
   xmlns:inkscape="http://www.inkscape.org/namespaces/inkscape"
   version="1.1"
   x="0px"
   y="0px"
   width="512px"
   height="512px"
   viewBox="0 0 512 512"
   enable-background="new 0 0 512 512"
   xml:space="preserve"
   id="svg2"
   inkscape:version="0.48.5 r10040"
   sodipodi:docname="group.svg"><metadata
     id="metadata9"><rdf:RDF><cc:Work
         rdf:about=""><dc:format>image/svg+xml</dc:format><dc:type
           rdf:resource="http://purl.org/dc/dcmitype/StillImage" /></cc:Work></rdf:RDF></metadata><defs
     id="defs7" /><sodipodi:namedview
     pagecolor="#ffffff"
     bordercolor="#666666"
     borderopacity="1"
     objecttolerance="10"
     gridtolerance="10"
     guidetolerance="10"
     inkscape:pageopacity="0"
     inkscape:pageshadow="2"
     inkscape:window-width="1920"
     inkscape:window-height="1009"
     id="namedview5"
     showgrid="true"
     inkscape:zoom="1.3037281"
     inkscape:cx="-62.312424"
     inkscape:cy="262.39331"
     inkscape:window-x="0"
     inkscape:window-y="25"
     inkscape:window-maximized="1"
     inkscape:current-layer="svg2"><inkscape:grid
       type="xygrid"
       id="grid2990" /></sodipodi:namedview><g
     style="font-size:253.43998718px;font-style:normal;font-variant:normal;font-weight:normal;font-stretch:normal;line-height:125%;letter-spacing:0px;word-spacing:0px;fill:#000000;fill-opacity:1;stroke:none;font-family:Helios;-inkscape-font-specification:Helios"
     id="text2986"
     transform="matrix(1.43,0,0,1.43,-106.49744,-103.71435)"><path
       d="m 248.93568,164.40385 c 32.44028,0 34.72127,34.46786 34.72127,56.51711 0,35.73501 -21.28897,45.36576 -35.48159,45.36576 -24.58366,0 -35.98848,-22.55619 -35.98848,-51.70176 0,-17.48734 1.77411,-50.18111 36.7488,-50.18111 m 36.24191,-16.4736 0,19.008 c -6.58943,-9.88415 -17.23394,-22.8096 -40.29695,-22.8096 -35.73501,0 -55.7568,28.63875 -55.7568,66.90815 0,31.93341 12.92548,74.7648 58.2912,74.7648 17.99422,0 29.90592,-8.61697 36.24191,-19.008 0,23.5699 -1.01379,52.71552 -38.01599,52.71552 -5.32224,0 -26.10433,-1.7741 -30.15936,-21.28896 l -22.55616,0 c 4.30847,35.735 34.97473,40.04352 50.94144,40.04352 61.83929,0 62.34623,-48.15362 62.34623,-67.41504 l 0,-122.91839 -21.03552,0"
       id="path2993"
       inkscape:connector-curvature="0" /></g></svg>