<?xml version="1.0" encoding="UTF-8" standalone="no"?>
<!-- Created with Inkscape (http://www.inkscape.org/) -->

<svg
   xmlns:dc="http://purl.org/dc/elements/1.1/"
   xmlns:cc="http://creativecommons.org/ns#"
   xmlns:rdf="http://www.w3.org/1999/02/22-rdf-syntax-ns#"
   xmlns:svg="http://www.w3.org/2000/svg"
   xmlns="http://www.w3.org/2000/svg"
   xmlns:sodipodi="http://sodipodi.sourceforge.net/DTD/sodipodi-0.dtd"
   xmlns:inkscape="http://www.inkscape.org/namespaces/inkscape"
   version="1.1"
   width="546.13336"
   height="546.13336"
   viewBox="0 0 512 512"
   id="svg3456"
   xml:space="preserve"
   inkscape:version="0.92.1 r15371"
   sodipodi:docname="info.svg"><sodipodi:namedview
     pagecolor="#ffffff"
     bordercolor="#666666"
     borderopacity="1"
     objecttolerance="10"
     gridtolerance="10"
     guidetolerance="10"
     inkscape:pageopacity="0"
     inkscape:pageshadow="2"
     inkscape:window-width="1258"
     inkscape:window-height="802"
     id="namedview7"
     showgrid="false"
     inkscape:zoom="0.4609375"
     inkscape:cx="-35.270171"
     inkscape:cy="431.20905"
     inkscape:window-x="0"
     inkscape:window-y="25"
     inkscape:window-maximized="0"
     inkscape:current-layer="svg3456" /><metadata
     id="metadata3463"><rdf:RDF><cc:Work
         rdf:about=""><dc:format>image/svg+xml</dc:format><dc:type
           rdf:resource="http://purl.org/dc/dcmitype/StillImage" /><dc:title /></cc:Work></rdf:RDF></metadata><defs
     id="defs3461" /><g
     aria-label="a"
     style="font-style:italic;font-variant:normal;font-weight:normal;font-stretch:normal;font-size:593.99993896px;line-height:1.25;letter-spacing:0px;word-spacing:0px;fill:#131313;fill-opacity:1;stroke:none;stroke-width:3.09374976"
     id="text818"><path
       d="m 382.211,290.51229 c 0,-5.94 -4.752,-5.94 -8.91,-5.94 -7.128,0 -7.722,0.594 -11.286,13.662 -8.316,33.264 -19.602,70.686 -39.798,70.686 -15.44399,0 -15.44399,-16.038 -15.44399,-24.354 0,-4.158 0,-13.662 4.158,-30.294 L 351.323,152.70431 c 2.376,-8.316 2.376,-9.504 2.376,-12.474 0,-12.474 -10.098,-15.444 -16.038,-15.444 -19.00799,0 -23.16599,20.196 -23.75999,23.166 -11.286,-25.542 -30.294,-35.046 -49.302,-35.046 -65.93399,0 -136.02599,90.28799 -136.02599,177.01198 0,50.49 27.324,92.06999 71.874,92.06999 21.384,0 47.51999,-12.47399 71.27999,-41.57999 6.534,29.106 28.512,41.57999 49.30199,41.57999 21.978,0 34.452,-14.84999 43.362,-33.26399 10.692,-22.572 17.82,-58.212 17.82,-58.212 z m -106.32599,11.286 c -4.752,19.008 -41.58,67.122 -74.24999,67.122 -27.918,0 -32.67,-35.046 -32.67,-52.866 0,-29.7 18.414,-99.19799 29.106,-124.14599 14.85,-36.23399 42.17399,-65.93399 66.52799,-65.93399 26.136,0 40.986,30.888 40.986,55.83599 0,0 -0.594,4.158 -1.782,7.722 z"
       style="font-style:italic;font-variant:normal;font-weight:normal;font-stretch:normal;font-size:593.99993896px;stroke-width:3.09374976;fill:#131313;fill-opacity:1"
       id="path820" /></g></svg>
