<?xml version="1.0" encoding="UTF-8" standalone="no"?>
<svg
   xmlns:dc="http://purl.org/dc/elements/1.1/"
   xmlns:cc="http://creativecommons.org/ns#"
   xmlns:rdf="http://www.w3.org/1999/02/22-rdf-syntax-ns#"
   xmlns:svg="http://www.w3.org/2000/svg"
   xmlns="http://www.w3.org/2000/svg"
   xmlns:sodipodi="http://sodipodi.sourceforge.net/DTD/sodipodi-0.dtd"
   xmlns:inkscape="http://www.inkscape.org/namespaces/inkscape"
   xml:space="preserve"
   id="svg3456"
   viewBox="0 0 1024 512"
   height="512"
   width="1024"
   version="1.1"
   sodipodi:docname="lock2.svg"
   inkscape:version="0.92.4 (5da689c313, 2019-01-14)"><sodipodi:namedview
   pagecolor="#ffffff"
   bordercolor="#666666"
   borderopacity="1"
   objecttolerance="10"
   gridtolerance="10"
   guidetolerance="10"
   inkscape:pageopacity="0"
   inkscape:pageshadow="2"
   inkscape:window-width="1920"
   inkscape:window-height="992"
   id="namedview875"
   showgrid="false"
   inkscape:zoom="1.0951869"
   inkscape:cx="596.72481"
   inkscape:cy="293.3992"
   inkscape:window-x="0"
   inkscape:window-y="29"
   inkscape:window-maximized="1"
   inkscape:current-layer="svg3456" /><metadata
   id="metadata3463"><rdf:RDF><cc:Work
       rdf:about=""><dc:format>image/svg+xml</dc:format><dc:type
         rdf:resource="http://purl.org/dc/dcmitype/StillImage" /><dc:title></dc:title></cc:Work></rdf:RDF></metadata><defs
   id="defs3461" /><text
   id="text3876"
   y="359.64804"
   x="125.85089"
   style="font-style:normal;font-weight:normal;font-size:14.5199995px;line-height:0%;letter-spacing:0px;word-spacing:0px;fill:#000000;fill-opacity:1;stroke:none;stroke-width:1.21000004"
   xml:space="preserve"><tspan
     style="font-size:48.40000153px;line-height:1.25;stroke-width:1.21000004"
     y="359.64804"
     x="125.85089"
     id="tspan3878"> </tspan></text>







<g
   transform="matrix(1.1,0,0,1.1,-24.679688,-25.868184)"
   id="text822"
   style="font-style:normal;font-variant:normal;font-weight:normal;font-stretch:normal;font-size:452.72592163px;line-height:1.25;letter-spacing:0px;word-spacing:0px;fill:#000000;fill-opacity:1;stroke:none;stroke-width:2.35794783"
   aria-label="∩" /><g
   transform="matrix(22.186111,0,0,22.186111,519.93848,-58.790286)"
   id="g4658"
   style="fill:none;stroke:#282828;stroke-width:1.57756352;stroke-linecap:butt;stroke-linejoin:miter;stroke-miterlimit:4;stroke-dasharray:none;stroke-opacity:1"><path
     style="stroke:#282828;stroke-width:1.57756352;stroke-linecap:butt;stroke-linejoin:miter;stroke-miterlimit:4;stroke-dasharray:none;stroke-opacity:1"
     d="m 7.6652246,13.91818 v -3.549268 c 0.00133,-6.6653307 10.0013324,-6.6653307 9.9999994,0 v 3.549268"
     id="path4646"
     inkscape:connector-curvature="0" /></g><rect
   y="270"
   x="660"
   height="180"
   width="280"
   id="rect4684"
   style="fill:none;fill-opacity:1;stroke:#282828;stroke-width:40;stroke-linecap:butt;stroke-linejoin:miter;stroke-miterlimit:4;stroke-dasharray:none;stroke-opacity:1" /><g
   id="g832"
   transform="matrix(1.6376411,0,0,0.729,-122.89571,192.24215)"
   style="fill:none;stroke:#282828;stroke-opacity:1"><path
     inkscape:connector-curvature="0"
     id="path2988"
     d="M 100,252 H 410"
     style="fill:none;stroke:#282828;stroke-width:24;stroke-linecap:butt;stroke-linejoin:miter;stroke-miterlimit:4;stroke-dasharray:none;stroke-opacity:1" /><path
     inkscape:connector-curvature="0"
     id="path2990"
     d="M 100,312 H 410"
     style="fill:none;stroke:#282828;stroke-width:24;stroke-linecap:butt;stroke-linejoin:miter;stroke-miterlimit:4;stroke-dasharray:none;stroke-opacity:1" /><path
     inkscape:connector-curvature="0"
     id="path2994"
     d="M 100,372 H 410"
     style="fill:none;stroke:#282828;stroke-width:24;stroke-linecap:butt;stroke-linejoin:miter;stroke-miterlimit:4;stroke-dasharray:none;stroke-opacity:1" /></g><g
   id="g849"
   transform="matrix(1.21,0,0,1.21,-17.556766,-91.947051)"
   style="fill:#282828;fill-opacity:1;stroke:none;stroke-opacity:1"><text
     id="text3876-5"
     y="297.99832"
     x="153.40622"
     style="font-style:normal;font-weight:normal;line-height:0%;letter-spacing:0px;word-spacing:0px;fill:#282828;fill-opacity:1;stroke:none;stroke-opacity:1"
     xml:space="preserve"><tspan
       style="font-size:40px;line-height:1.25;fill:#282828;fill-opacity:1;stroke:none;stroke-opacity:1"
       y="297.99832"
       x="153.40622"
       id="tspan3878-3"
       sodipodi:role="line"> </tspan></text>
<g
     transform="translate(34.124,32.456)"
     id="text3081"
     style="font-style:normal;font-variant:normal;font-weight:normal;font-stretch:normal;font-size:288px;line-height:125%;letter-spacing:0px;word-spacing:0px;fill:#282828;fill-opacity:1;stroke:none;stroke-opacity:1"><path
       style="fill:#282828;fill-opacity:1;stroke:none;stroke-opacity:1"
       inkscape:connector-curvature="0"
       id="path3133"
       d="m 84.691998,179.944 c 0.864,-14.11198 2.592039,-50.4 41.184002,-50.4 29.95197,0 40.32,20.73602 40.32,37.152 0,26.49598 -16.99203,37.44002 -43.488,50.976 -54.719947,28.22397 -66.240004,50.68805 -68.832002,93.6 H 193.556 V 287.08 H 82.675998 c 1.151999,-8.06399 11.232028,-26.49601 38.880002,-41.472 50.11195,-27.07197 72,-41.18403 72,-77.76 0,-38.30396 -28.51204,-61.344 -63.936,-61.344 -22.17598,0 -70.560002,6.91207 -70.560002,73.44 h 25.632" /><path
       style="fill:#282828;fill-opacity:1;stroke:none;stroke-opacity:1"
       inkscape:connector-curvature="0"
       id="path3135"
       d="m 229.412,311.272 h 83.52 c 68.54393,0 88.992,-60.48004 88.992,-107.424 0,-60.19194 -33.40806,-101.664 -87.84,-101.664 h -84.672 v 209.088 m 28.224,-184.896 h 52.704 c 38.30396,0 62.496,26.49606 62.496,79.2 0,52.70395 -23.90404,81.504 -60.48,81.504 h -54.72 V 126.376" /></g></g></svg>