<?xml version="1.0" encoding="UTF-8" standalone="no"?>
<!-- Created with Inkscape (http://www.inkscape.org/) -->

<svg
   xmlns:dc="http://purl.org/dc/elements/1.1/"
   xmlns:cc="http://creativecommons.org/ns#"
   xmlns:rdf="http://www.w3.org/1999/02/22-rdf-syntax-ns#"
   xmlns:svg="http://www.w3.org/2000/svg"
   xmlns="http://www.w3.org/2000/svg"
   xmlns:sodipodi="http://sodipodi.sourceforge.net/DTD/sodipodi-0.dtd"
   xmlns:inkscape="http://www.inkscape.org/namespaces/inkscape"
   version="1.1"
   width="512"
   height="512"
   viewBox="0 0 512 512"
   id="svg3456"
   xml:space="preserve"
   inkscape:version="0.48.5 r10040"
   sodipodi:docname="meta.svg"><sodipodi:namedview
     pagecolor="#ffffff"
     bordercolor="#666666"
     borderopacity="1"
     objecttolerance="10"
     gridtolerance="10"
     guidetolerance="10"
     inkscape:pageopacity="0"
     inkscape:pageshadow="2"
     inkscape:window-width="1517"
     inkscape:window-height="962"
     id="namedview3077"
     showgrid="true"
     inkscape:zoom="1.3037281"
     inkscape:cx="-10.637828"
     inkscape:cy="260.16931"
     inkscape:window-x="0"
     inkscape:window-y="67"
     inkscape:window-maximized="0"
     inkscape:current-layer="svg3456"><inkscape:grid
       type="xygrid"
       id="grid3085" /></sodipodi:namedview><metadata
     id="metadata3463"><rdf:RDF><cc:Work
         rdf:about=""><dc:format>image/svg+xml</dc:format><dc:type
           rdf:resource="http://purl.org/dc/dcmitype/StillImage" /><dc:title /></cc:Work></rdf:RDF></metadata><defs
     id="defs3461" /><path
     style="fill:none;stroke:#000000;stroke-width:20;stroke-linecap:butt;stroke-linejoin:miter;stroke-opacity:1;stroke-miterlimit:4;stroke-dasharray:none"
     d="m 90,52 0,410 330,0 0,-410 z"
     id="path3087"
     inkscape:connector-curvature="0" /><text
     xml:space="preserve"
     style="font-size:40px;font-style:normal;font-weight:normal;line-height:125%;letter-spacing:0px;word-spacing:0px;fill:#000000;fill-opacity:1;stroke:none"
     x="153.40622"
     y="297.99832"
     id="text3876"
     sodipodi:linespacing="125%"><tspan
       sodipodi:role="line"
       id="tspan3878" /></text>
<g
     style="font-size:316.24563599px;font-style:italic;font-variant:normal;font-weight:500;font-stretch:normal;line-height:125%;letter-spacing:0px;word-spacing:0px;fill:#000000;fill-opacity:1;stroke:none"
     id="text3880"><path
       d="m 274.57291,202.57451 -60.71916,4.74369 -1.26498,11.38484 7.58989,0 c 12.96606,0 18.02601,2.84622 18.02601,9.80361 0,2.84621 -0.94874,6.95742 -2.84621,13.91481 l -18.34225,61.6679 c -5.69242,19.92346 -6.95741,24.98341 -6.95741,31.94081 0,11.06859 9.48739,19.60723 21.82095,19.60723 13.59855,0 26.56465,-7.27366 39.21446,-21.82095 5.69242,-6.32491 10.75236,-13.28233 19.60723,-26.88088 l -9.80361,-5.37617 c -15.81227,24.35089 -29.7271,38.26572 -38.26573,38.26572 -3.16245,0 -5.37617,-2.84622 -5.37617,-6.64116 0,-3.16245 1.26498,-8.85489 3.79495,-17.70976 l 33.52203,-112.89969 m -5.69242,-77.16393 c -9.48736,0 -17.07726,7.5899 -17.07726,17.07726 0,9.17112 7.5899,17.07727 16.76102,17.07727 9.8036,0 17.39351,-7.58991 17.39351,-17.07727 0,-9.48736 -7.58991,-17.07726 -17.07727,-17.07726"
       style=""
       id="path3885" /></g></svg>
